<?xml version="1.0" encoding="UTF-8"?>
<svg width="256px" height="256px" viewBox="0 0 256 256" version="1.1" xmlns="http://www.w3.org/2000/svg" xmlns:xlink="http://www.w3.org/1999/xlink">
    <!-- Generator: Sketch 52.2 (67145) - http://www.bohemiancoding.com/sketch -->
    <title>icon</title>
    <desc>Created with Sketch.</desc>
    <defs>
        <filter x="-6.2%" y="-6.2%" width="112.3%" height="112.3%" filterUnits="objectBoundingBox" id="filter-1">
            <feOffset dx="0" dy="2" in="SourceAlpha" result="shadowOffsetOuter1"></feOffset>
            <feGaussianBlur stdDeviation="2" in="shadowOffsetOuter1" result="shadowBlurOuter1"></feGaussianBlur>
            <feColorMatrix values="0 0 0 0 0   0 0 0 0 0   0 0 0 0 0  0 0 0 0.5 0" type="matrix" in="shadowBlurOuter1" result="shadowMatrixOuter1"></feColorMatrix>
            <feMerge>
                <feMergeNode in="shadowMatrixOuter1"></feMergeNode>
                <feMergeNode in="SourceGraphic"></feMergeNode>
            </feMerge>
        </filter>
    </defs>
    <g id="icon" stroke="none" stroke-width="1" fill="none" fill-rule="evenodd">
        <g id="if_help_289807" filter="url(#filter-1)" transform="translate(31.000000, 31.000000)" fill-rule="nonzero">
            <path d="M18.9031534,18.9020922 C0.584649852,37.2203594 -0.837728074,66.1299157 14.5889989,86.1742143 C14.9122666,83.8800228 15.331535,81.6191372 15.835049,79.3876392 C4.76166051,61.5395734 6.8971866,37.7846012 22.3415464,22.3404407 C37.7976613,6.88648436 61.5784096,4.75882252 79.430624,15.8594966 C81.6601916,15.3579483 83.9211064,14.9406444 86.2153276,14.6193401 C66.1668519,-0.838534648 37.2334122,0.572069889 18.9031534,18.9020922 Z M173.658264,22.3404407 C189.096746,37.7787237 191.23619,61.5219409 180.176516,79.3680474 C180.681989,81.5995455 181.103217,83.8604311 181.426485,86.1565818 C196.835579,66.1122832 195.411242,37.2164411 177.096657,18.9020922 C158.766398,0.572069889 129.834917,-0.838534648 109.788401,14.6173809 C112.082622,14.9386853 114.343537,15.3540299 116.575064,15.8575374 C134.427278,4.75882252 158.204108,6.88648436 173.658264,22.3404407 Z M181.426485,109.841024 C181.103217,112.137174 180.681989,114.39806 180.176516,116.631517 C191.23619,134.477624 189.096746,158.218882 173.658264,173.655206 C158.204108,189.109162 134.429237,191.238783 116.575064,180.143987 C114.343537,180.645535 112.080663,181.062839 109.786442,181.384143 C129.836877,196.840059 158.768357,195.425536 177.096657,177.097473 C195.411242,158.783124 196.835579,129.887282 181.426485,109.841024 Z M22.3415464,173.655206 C6.8971866,158.211045 4.76166051,134.458032 15.835049,116.609966 C15.331535,114.378468 14.9122666,112.117583 14.5889989,109.823391 C-0.837728074,129.869649 0.584649852,158.777246 18.9011942,177.095513 C37.231453,195.423576 66.1648927,196.838099 86.2133684,181.382184 C83.9211064,181.060879 81.6601916,180.641616 79.430624,180.140068 C61.5744912,191.240742 37.7957021,189.111121 22.3415464,173.655206 Z" id="Shape" fill="#CCD0D2"></path>
            <path d="M97.5,6.66274094e-16 C43.6526425,6.66274094e-16 0,43.6526425 0,97.5 C0,151.347357 43.6526425,195 97.5,195 C151.347357,195 195,151.347357 195,97.5 C195,43.6526425 151.347357,0 97.5,6.66274094e-16 Z M97.5,146.217831 C70.5928933,146.217831 48.7841189,124.405157 48.7841189,97.5 C48.7841189,70.5948429 70.5948429,48.7821692 97.5,48.7821692 C124.405157,48.7821692 146.217831,70.5948429 146.217831,97.5 C146.217831,124.405157 124.407107,146.217831 97.5,146.217831 Z" id="Shape" fill="#E2574C"></path>
            <path d="M97.5,14 C51.3846977,14 14,51.3846977 14,97.5 C14,143.615302 51.3846977,181 97.5,181 C143.615302,181 181,143.615302 181,97.5 C181,51.3846977 143.615302,14 97.5,14 Z M97.5,175.174419 C54.6004186,175.174419 19.8255814,140.399581 19.8255814,97.5 C19.8255814,54.6023605 54.6004186,19.8255814 97.5,19.8255814 C140.399581,19.8255814 175.174419,54.6023605 175.174419,97.5 C175.174419,140.399581 140.399581,175.174419 97.5,175.174419 Z" id="Shape" fill="#E4645A"></path>
            <g id="Group" transform="translate(16.000000, 33.000000)" fill="#D85349">
                <path d="M0.244047619,10.5243264 L36.3591905,46.672799 C37.9230476,42.5279773 40.0335714,38.6547871 42.6029048,35.1372582 L7.86614286,0.366484427 C5.11328571,3.57916088 2.56542857,6.96966795 0.244047619,10.5243264 Z M28.6062857,145.728369 L64.7116667,109.589667 C60.5784762,108.020458 56.7147143,105.907987 53.2043333,103.336282 L18.4695238,138.101193 C21.6792381,140.854637 25.0607619,143.404845 28.6062857,145.728369 Z M110.762476,103.359732 C107.24819,105.931437 103.378571,108.043908 99.2395238,109.609209 L135.350762,145.753773 C138.902143,143.432204 142.289524,140.880041 145.499238,138.126598 L110.762476,103.359732 Z M156.108476,0.337171686 L121.375619,35.1040371 C123.944952,38.6157035 126.055476,42.4830311 127.623238,46.6219902 L163.728619,10.4832885 C161.407238,6.93253848 158.859381,3.54789395 156.108476,0.337171686 Z" id="Shape"></path>
            </g>
            <path d="M98,37 C64.8625806,37 38,63.8625806 38,97 C38,130.137419 64.8625806,157 98,157 C131.137419,157 158,130.137419 158,97 C158,63.8625806 131.137419,37 98,37 Z M98,145.365806 C71.2883871,145.365806 49.6380645,123.711613 49.6380645,97.0019355 C49.6380645,70.2922581 71.2903226,48.6380645 98,48.6380645 C124.709677,48.6380645 146.363871,70.2922581 146.363871,97.0019355 C146.363871,123.711613 124.711613,145.365806 98,145.365806 Z" id="Shape" fill="#D95449"></path>
            <path d="M43,70.8998617 L51.9299513,79.7684647 C52.3043074,78.7809129 52.7157091,77.8127248 53.1524578,76.8600277 L53.2460468,76.6547718 C54.1390419,74.7319502 55.1509731,72.8769018 56.2798905,71.1012448 L56.4066256,70.9056708 C56.9642602,70.0362379 57.5472417,69.182296 58.15752,68.3515906 L58.1653191,68.3399723 L49.7988516,60.030982 C47.1686105,63.3905947 44.8756797,67.0251729 43,70.8998617 Z M145.197249,60 L136.834681,68.3070539 C137.446909,69.1396957 138.03184,69.9936376 138.591425,70.8650069 L138.724009,71.0702628 C139.854876,72.8478562 140.870707,74.7029046 141.765652,76.6257261 L141.841693,76.7922545 C142.282341,77.7507607 142.695693,78.724758 143.073948,79.7161826 L152,70.8495159 C150.12432,66.9825726 147.83139,63.35574 145.197249,60 Z M126.235726,135.940802 L126.19868,135.965975 C125.375877,136.562379 124.533575,137.129737 123.673726,137.673859 L123.435854,137.824896 C121.657663,138.938313 119.803431,139.939419 117.879007,140.818534 L117.631386,140.930844 C116.677948,141.362656 115.710861,141.767358 114.726227,142.13527 L123.652279,151 C127.555721,149.139142 131.215441,146.861964 134.596344,144.247856 L126.235726,135.940802 Z M80.2484259,142.11397 C79.2520929,141.740249 78.271358,141.329737 77.3081712,140.89018 L77.1346415,140.812725 C75.2004687,139.925864 73.3345378,138.917012 71.5465977,137.795851 L71.3301732,137.658368 C70.4586255,137.106501 69.602676,136.529461 68.7701238,135.923375 L68.7603749,135.915629 L60.397807,144.218811 C63.7748104,146.834855 67.4286813,149.112033 71.3243238,150.974827 L80.2484259,142.11397 Z" id="Shape" fill="#D05046"></path>
            <path d="M25,54.3305785 L29.2692658,58.5967967 C31.4068135,54.9189554 33.818356,51.4217051 36.5116661,48.1594171 L32.3803693,44.0310694 C29.6715134,47.2661716 27.1977877,50.7051668 25,54.3305785 Z M160.621574,44 L156.490277,48.1283477 C159.181644,51.386752 161.593186,54.8801187 163.732677,58.5521345 L168,54.2859162 C165.802212,50.6663301 163.328487,47.2331604 160.621574,44 Z M145.928848,157.496551 C142.66423,160.187939 139.164481,162.59776 135.484013,164.733782 L139.753278,169 C143.38128,166.801839 146.822732,164.333763 150.062088,161.626841 L145.928848,157.496551 Z M57.4984984,164.71048 C53.8238595,162.572516 50.3279974,160.162695 47.0672655,157.473249 L42.9359687,161.601597 C46.1714387,164.306577 49.6070608,166.778537 53.2292326,168.974756 L57.4984984,164.71048 Z" id="Shape" fill="#DA5E54"></path>
            <g id="Group" transform="translate(19.000000, 18.000000)" fill="#EFEFEF">
                <path d="M56.3071626,122.237946 C47.5208211,117.618081 40.3213367,110.399054 35.7190604,101.602942 L0.337229407,136.984773 C6.13941976,144.842842 13.0848507,151.798044 20.9370571,157.608051 L56.3071626,122.237946 Z M101.604896,35.7171062 C110.401009,40.3213367 117.616127,47.5227754 122.237946,56.3071626 L157.608051,20.9370571 C151.798044,13.0848507 144.842842,6.13941976 136.984773,0.337229407 L101.604896,35.7171062 Z M0.364589011,20.9800508 L35.7405572,56.356019 C40.3526048,47.5618605 47.5638148,40.3506506 56.3599275,35.7366487 L20.982005,0.360680496 C13.1258901,6.16677936 6.17068787,13.1219816 0.364589011,20.9800508 Z M157.63932,137.016041 L122.265306,101.640072 C117.655212,110.436185 110.442048,117.647395 101.64789,122.261397 L137.021903,157.635411 C144.879973,151.829312 151.835175,144.87411 157.63932,137.016041 Z" id="Shape"></path>
            </g>
            <path d="M49.6523949,165.970613 L53.8663297,161.758518 C45.7577865,156.220102 38.7443571,149.200596 33.2139349,141.083986 L29,145.298041 C34.6322932,153.332368 41.6261321,160.332283 49.6523949,165.970613 Z M167,145.329387 L162.788024,141.117291 C157.251725,149.231942 150.234377,156.251448 142.117998,161.787905 L146.329974,166 C154.364073,160.363629 161.363789,153.363714 167,145.329387 Z M146.294711,28 L142.080776,32.2140545 C150.197155,37.7426746 157.216462,44.7563032 162.75472,52.8650767 L166.966696,48.6510221 C161.328526,40.6264906 154.32881,33.6324532 146.294711,28 Z M29.0254678,48.6941227 L33.2394026,52.9081772 C38.775702,44.7935264 45.7950087,37.7740204 53.909429,32.239523 L49.6954942,28.0254685 C41.6633542,33.6618399 34.6636382,40.6617547 29.0254678,48.6941227 Z" id="Shape" fill="#F1F1F1"></path>
            <path d="M53.6674824,74.3240959 C55.3923643,71.0327955 57.4833675,67.9647006 59.8837139,65.1687595 L59.9483236,65.0923998 C61.5341968,63.2538924 63.2532051,61.5328614 65.0936012,59.9469285 L65.1719159,59.8803585 C67.9657938,57.4799217 71.0318154,55.3927556 74.3210339,53.6678088 L74.3229918,53.6658509 L65.6770459,45.0195794 C57.2268868,50.121976 50.123741,57.2253892 45.0195787,65.6758665 L53.6674824,74.3240959 Z M128.303375,45 L119.655472,53.6482294 L119.663303,53.6521453 C122.95448,55.3751341 126.020501,57.4603423 128.818295,59.8568632 L128.884862,59.9136435 C130.723301,61.4976185 132.444267,63.2127756 134.032098,65.051283 L134.110412,65.1413483 C135.702159,66.9955193 137.162729,68.9671668 138.466669,71.0465011 L138.474501,71.0562908 C139.130386,72.1037897 139.749073,73.1767419 140.326644,74.2771053 L148.970632,65.6327918 C143.862554,57.1901463 136.755492,50.0965228 128.303375,45 Z M140.354054,119.695484 C138.629172,122.986784 136.542085,126.052921 134.141738,128.848862 L134.071255,128.929138 C132.485382,130.767645 130.766374,132.486718 128.927935,134.072651 L128.851579,134.139221 C126.055743,136.539658 122.989721,138.63074 119.698545,140.355687 L128.342533,149 C136.790734,143.897603 143.895838,136.792232 149,128.339797 L140.354054,119.695484 Z M71.0592255,138.481936 L71.0337732,138.466273 C68.9603908,137.164241 66.9927333,135.70949 65.1425479,134.117684 L65.0426966,134.031534 C63.2062162,132.443643 61.4911237,130.726528 59.9091662,128.886063 L59.8563038,128.823409 C57.4579152,126.023552 55.3708278,122.953499 53.6479038,119.658283 L45,128.306512 C50.0963309,136.755031 57.1916452,143.864318 65.6320149,148.974547 L74.2740451,140.332191 C73.175681,139.754598 72.1047271,139.137847 71.0592255,138.481936 Z" id="Shape" fill="#E6E6E6"></path>
        </g>
    </g>
</svg>